<?xml version="1.0" encoding="UTF-8"?>
<!DOCTYPE svg PUBLIC "-//W3C//DTD SVG 1.1//EN" "http://www.w3.org/Graphics/SVG/1.1/DTD/svg11.dtd">
<!-- Creator: CorelDRAW 2020 (64-Bit) -->
<svg xmlns="http://www.w3.org/2000/svg" xml:space="preserve" width="34.9369mm" height="33.6077mm" version="1.1" style="shape-rendering:geometricPrecision; text-rendering:geometricPrecision; image-rendering:optimizeQuality; fill-rule:evenodd; clip-rule:evenodd"
viewBox="0 0 577.78 555.79"
 xmlns:xlink="http://www.w3.org/1999/xlink"
 xmlns:xodm="http://www.corel.com/coreldraw/odm/2003">
 <defs>
  <style type="text/css">
   <![CDATA[
    .fil0 {fill:#FEFEFE}
    .fil1 {fill:#B2B3B3}
   ]]>
  </style>
   <clipPath id="id0">
    <path d="M35.35 214.57c3.99,1.39 11.17,2.31 16.72,2.78 5.56,0.46 9.49,0.46 11.22,2.78 1.74,2.32 1.27,6.94 0,17.47 -1.27,10.53 -3.36,26.96 -3.59,44.2 -0.23,17.24 1.39,35.29 4.86,51.95 3.47,16.66 8.79,31.94 14.81,45.94 6.02,14 12.73,26.73 20.94,38.99 8.22,12.27 17.94,24.07 29.74,35.52 11.8,11.46 25.69,22.56 39.57,31.59 13.89,9.03 27.77,15.97 39.92,21.29 12.15,5.32 22.56,9.03 36.45,12.27 13.89,3.24 31.24,6.02 48.6,6.71 17.36,0.69 34.71,-0.69 49.76,-2.78 15.04,-2.08 27.77,-4.86 40.18,-9.17 12.41,-4.31 24.5,-10.15 35.72,-16.49 11.22,-6.34 21.58,-13.16 29.36,-18.89 7.78,-5.73 12.99,-10.36 18.51,-15.62 5.53,-5.27 11.37,-11.17 18.72,-19.56 7.35,-8.39 16.2,-19.26 22.85,-28.41 6.65,-9.14 11.11,-16.55 15.1,-23.98 3.99,-7.43 7.52,-14.9 10.85,-24.33 3.33,-9.43 6.45,-20.83 8.45,-30.69 2,-9.86 2.86,-18.19 3.36,-25.98 0.49,-7.78 0.61,-15.01 0.72,-23 0.12,-7.98 0.23,-16.72 -0.81,-28.32 -1.04,-11.6 -3.24,-26.06 -6.1,-39.49 -2.86,-13.42 -6.39,-25.8 -10.76,-37.26 -4.37,-11.46 -9.57,-21.99 -14.09,-29.88 -4.51,-7.9 -8.33,-13.16 -13.54,-20.1 -5.21,-6.94 -11.8,-15.56 -17.42,-21.96 -5.61,-6.39 -10.24,-10.56 -14.9,-14.84 -4.66,-4.28 -9.34,-8.68 -14.75,-12.99 -5.41,-4.31 -11.54,-8.53 -20.22,-13.77 -8.68,-5.24 -19.9,-11.48 -28.12,-15.62 -8.22,-4.14 -13.42,-6.16 -18.75,-8.27 -5.32,-2.11 -10.76,-4.31 -15.56,-5.93 -4.8,-1.62 -8.97,-2.66 -13.13,-3.73 -4.17,-1.07 -8.33,-2.17 -12,-3.01 -3.67,-0.84 -6.86,-1.42 -17.88,-1.88 -11.02,-0.46 -29.88,-0.81 -44.69,-0.23 -14.81,0.58 -25.57,2.08 -35.72,4.22 -10.15,2.14 -19.7,4.92 -27.28,7.41 -7.58,2.49 -13.19,4.69 -18.75,7.2 -5.56,2.52 -11.05,5.35 -15.59,8.01 -4.54,2.66 -8.13,5.15 -12.38,8.1 -4.25,2.95 -9.17,6.36 -13.94,9.55 -4.77,3.18 -9.4,6.13 -12.12,7.29 -2.72,1.16 -3.53,0.52 -6.1,-2.4 -2.57,-2.92 -6.91,-8.13 -10.04,-11.6 -3.12,-3.47 -5.03,-5.21 -6.54,-6.19 -1.5,-0.98 -2.6,-1.21 -4.22,-0.72 -1.62,0.49 -3.76,1.71 -9.75,6.36 -5.99,4.66 -15.82,12.76 -25.89,23.23 -10.07,10.47 -20.36,23.32 -27.89,33.9 -7.52,10.59 -12.27,18.92 -15.97,27.08 -3.7,8.16 -6.36,16.14 -8.56,24.24 -2.2,8.1 -3.93,16.31 -4.69,21.99 -0.75,5.67 -0.52,8.79 0,11.28 0.52,2.49 1.33,4.34 5.33,5.73z"/>
   </clipPath>
 </defs>
 <g id="Слой_x0020_1">
  <metadata id="CorelCorpID_0Corel-Layer"/>
  <g id="_1364029699776">
   <path class="fil0" d="M152.67 44.87c2.08,-1.43 4.15,-2.87 6.22,-4.3 4.7,-3.26 9.35,-6.43 14.29,-9.32 5.91,-3.46 12.09,-6.61 18.33,-9.43 7.11,-3.22 14.31,-5.93 21.73,-8.36 9.96,-3.27 20.14,-6.08 30.4,-8.24 13.52,-2.85 26.86,-4.3 40.66,-4.84 15.55,-0.61 31.54,-0.42 47.09,0.23 7.97,0.33 15.43,0.82 23.22,2.6 4.28,0.98 8.53,2.1 12.78,3.2 5.14,1.32 10.19,2.65 15.23,4.35 5.74,1.94 11.38,4.23 17.01,6.46 7.26,2.88 14.14,5.82 21.14,9.35 10.18,5.13 20.33,10.83 30.09,16.71 8.1,4.89 15.96,10.06 23.37,15.96 5.7,4.54 10.98,9.42 16.34,14.35 6.03,5.54 11.68,10.92 17.1,17.1 6.63,7.55 12.82,15.68 18.85,23.72 5.7,7.6 10.82,14.9 15.55,23.17 6.19,10.82 11.6,22.37 16.04,34.01 5.15,13.51 9.03,27.49 12.05,41.62 3,14.09 5.35,28.67 6.63,43.01 0.95,10.57 1.08,20.8 0.93,31.39 -0.12,8.15 -0.26,16.29 -0.78,24.43 -0.64,10.13 -1.87,20.03 -3.88,29.98 -2.35,11.6 -5.61,23.51 -9.54,34.66 -3.5,9.91 -7.71,19.22 -12.68,28.48 -5.15,9.6 -10.83,18.58 -17.24,27.39 -7.62,10.47 -15.98,20.74 -24.52,30.49 -6.56,7.49 -13.35,14.61 -20.56,21.48 -6.84,6.52 -13.76,12.41 -21.38,18.02 -10.28,7.57 -21.24,14.55 -32.35,20.83 -12.95,7.31 -26.5,13.79 -40.56,18.67 -14.94,5.19 -30.17,8.36 -45.82,10.53 -18.14,2.51 -36.68,3.76 -54.99,3.03 -18.06,-0.72 -36.53,-3.35 -54.13,-7.46 -14.66,-3.42 -27.84,-7.95 -41.59,-13.98 -15.3,-6.7 -30.15,-14.47 -44.16,-23.58 -15.63,-10.16 -30.68,-22.18 -44.05,-35.16 -12.62,-12.25 -23.91,-25.66 -33.71,-40.28 -9.28,-13.85 -16.96,-28.46 -23.54,-43.77 -7.16,-16.66 -12.89,-33.81 -16.59,-51.58 -3.96,-19.02 -5.74,-38.95 -5.48,-58.38 0.17,-12.45 1.22,-24.67 2.58,-36.95 -2.46,-0.54 -4.85,-1.19 -7.1,-1.97 -13.06,-4.54 -21.72,-14.12 -24.54,-27.58 -1.49,-7.12 -1.32,-14.05 -0.37,-21.22 1.14,-8.6 3.19,-17.47 5.46,-25.84 2.67,-9.85 5.95,-19.42 10.17,-28.71 5.16,-11.37 11.56,-21.8 18.79,-31.97 9.19,-12.94 19.66,-25.82 30.67,-37.27 9,-9.36 18.8,-18.1 29.05,-26.07 5.99,-4.66 11.95,-9.08 19.32,-11.32 10.01,-3.04 20.24,-1.44 28.96,4.27 3.52,2.3 6.61,5.11 9.51,8.12z"/>
  </g>
  <path class="fil1" d="M35.35 214.57c3.99,1.39 11.17,2.31 16.72,2.78 5.56,0.46 9.49,0.46 11.22,2.78 1.74,2.32 1.27,6.94 0,17.47 -1.27,10.53 -3.36,26.96 -3.59,44.2 -0.23,17.24 1.39,35.29 4.86,51.95 3.47,16.66 8.79,31.94 14.81,45.94 6.02,14 12.73,26.73 20.94,38.99 8.22,12.27 17.94,24.07 29.74,35.52 11.8,11.46 25.69,22.56 39.57,31.59 13.89,9.03 27.77,15.97 39.92,21.29 12.15,5.32 22.56,9.03 36.45,12.27 13.89,3.24 31.24,6.02 48.6,6.71 17.36,0.69 34.71,-0.69 49.76,-2.78 15.04,-2.08 27.77,-4.86 40.18,-9.17 12.41,-4.31 24.5,-10.15 35.72,-16.49 11.22,-6.34 21.58,-13.16 29.36,-18.89 7.78,-5.73 12.99,-10.36 18.51,-15.62 5.53,-5.27 11.37,-11.17 18.72,-19.56 7.35,-8.39 16.2,-19.26 22.85,-28.41 6.65,-9.14 11.11,-16.55 15.1,-23.98 3.99,-7.43 7.52,-14.9 10.85,-24.33 3.33,-9.43 6.45,-20.83 8.45,-30.69 2,-9.86 2.86,-18.19 3.36,-25.98 0.49,-7.78 0.61,-15.01 0.72,-23 0.12,-7.98 0.23,-16.72 -0.81,-28.32 -1.04,-11.6 -3.24,-26.06 -6.1,-39.49 -2.86,-13.42 -6.39,-25.8 -10.76,-37.26 -4.37,-11.46 -9.57,-21.99 -14.09,-29.88 -4.51,-7.9 -8.33,-13.16 -13.54,-20.1 -5.21,-6.94 -11.8,-15.56 -17.42,-21.96 -5.61,-6.39 -10.24,-10.56 -14.9,-14.84 -4.66,-4.28 -9.34,-8.68 -14.75,-12.99 -5.41,-4.31 -11.54,-8.53 -20.22,-13.77 -8.68,-5.24 -19.9,-11.48 -28.12,-15.62 -8.22,-4.14 -13.42,-6.16 -18.75,-8.27 -5.32,-2.11 -10.76,-4.31 -15.56,-5.93 -4.8,-1.62 -8.97,-2.66 -13.13,-3.73 -4.17,-1.07 -8.33,-2.17 -12,-3.01 -3.67,-0.84 -6.86,-1.42 -17.88,-1.88 -11.02,-0.46 -29.88,-0.81 -44.69,-0.23 -14.81,0.58 -25.57,2.08 -35.72,4.22 -10.15,2.14 -19.7,4.92 -27.28,7.41 -7.58,2.49 -13.19,4.69 -18.75,7.2 -5.56,2.52 -11.05,5.35 -15.59,8.01 -4.54,2.66 -8.13,5.15 -12.38,8.1 -4.25,2.95 -9.17,6.36 -13.94,9.55 -4.77,3.18 -9.4,6.13 -12.12,7.29 -2.72,1.16 -3.53,0.52 -6.1,-2.4 -2.57,-2.92 -6.91,-8.13 -10.04,-11.6 -3.12,-3.47 -5.03,-5.21 -6.54,-6.19 -1.5,-0.98 -2.6,-1.21 -4.22,-0.72 -1.62,0.49 -3.76,1.71 -9.75,6.36 -5.99,4.66 -15.82,12.76 -25.89,23.23 -10.07,10.47 -20.36,23.32 -27.89,33.9 -7.52,10.59 -12.27,18.92 -15.97,27.08 -3.7,8.16 -6.36,16.14 -8.56,24.24 -2.2,8.1 -3.93,16.31 -4.69,21.99 -0.75,5.67 -0.52,8.79 0,11.28 0.52,2.49 1.33,4.34 5.33,5.73z"/>
  <g style="clip-path:url(#id0)">
   <image x="5.22" y="-13.01" width="579.48" height="579.48" xlink:href="1_Images\1_ImgID1.png"/>
  </g>
 </g>
</svg>
